<?xml version="1.0" standalone="no"?>
<!DOCTYPE svg PUBLIC "-//W3C//DTD SVG 20010904//EN"
 "http://www.w3.org/TR/2001/REC-SVG-20010904/DTD/svg10.dtd">
<svg version="1.0" xmlns="http://www.w3.org/2000/svg"
 width="657.000000pt" height="657.000000pt" viewBox="0 0 657.000000 657.000000"
 preserveAspectRatio="xMidYMid meet">
<metadata>
Created by potrace 1.14, written by Peter Selinger 2001-2017
</metadata>
<g transform="translate(0.000000,657.000000) scale(0.100000,-0.100000)"
fill="#000000" stroke="none">
<path d="M5295 6274 c-137 -24 -253 -63 -405 -134 -81 -38 -185 -83 -231 -99
-112 -40 -397 -120 -452 -127 -40 -6 -46 -4 -52 16 -4 13 -22 49 -41 81 -60
101 -157 181 -237 193 -135 21 -283 -220 -343 -559 -12 -71 -11 -287 3 -359
18 -96 49 -190 85 -258 17 -33 27 -64 24 -75 -3 -10 -8 -38 -11 -63 -3 -25 -7
-52 -10 -60 -2 -8 -7 -43 -10 -77 -4 -35 -9 -75 -11 -90 -4 -29 -11 -94 -19
-173 -2 -25 -7 -72 -10 -105 -13 -132 -16 -189 -22 -410 -3 -126 -7 -231 -8
-233 -2 -2 -43 17 -92 42 -48 25 -101 50 -118 57 -103 40 -272 49 -370 18 -33
-10 -64 -19 -70 -19 -5 0 -29 38 -53 84 -125 244 -344 470 -561 576 -64 31
-164 67 -212 75 -18 3 -36 8 -40 11 -29 18 -362 26 -468 11 -354 -49 -670
-224 -906 -503 -94 -112 -96 -114 -156 -209 -89 -142 -236 -450 -254 -535 -2
-8 -11 -35 -19 -58 -17 -48 -83 -282 -90 -322 -2 -14 -12 -58 -20 -97 -9 -40
-18 -87 -21 -105 -3 -18 -8 -44 -10 -58 -10 -46 -13 -65 -20 -120 -4 -30 -9
-64 -11 -74 -2 -11 -6 -44 -9 -75 -3 -31 -7 -67 -9 -81 -4 -23 -11 -97 -22
-230 -2 -30 -6 -101 -8 -158 l-5 -103 175 -114 c96 -63 177 -115 179 -115 4 0
-2 53 -11 110 -2 14 -6 138 -9 275 -4 257 -1 267 30 86 3 -18 14 -77 25 -130
11 -53 21 -107 24 -121 13 -75 48 -258 53 -274 3 -12 79 -54 232 -128 124 -61
282 -138 351 -171 69 -34 127 -62 130 -62 5 -1 121 -58 535 -260 110 -54 202
-99 205 -100 3 0 40 -18 83 -39 43 -21 80 -36 83 -34 2 3 -5 14 -16 26 -11 12
-20 23 -20 26 0 3 -13 24 -29 48 -27 41 -141 269 -141 283 0 4 -7 21 -14 38
-35 76 -125 361 -141 450 -4 19 -26 122 -30 137 -1 3 -5 30 -10 60 -5 30 -9
57 -10 60 -1 3 -5 37 -9 75 -5 39 -10 78 -11 87 -22 110 -22 668 0 748 2 8 6
47 10 85 12 137 68 283 160 419 171 253 407 383 641 353 56 -7 123 -26 156
-43 l28 -14 -23 -38 c-46 -73 -100 -232 -113 -335 -3 -23 -7 -53 -10 -67 -6
-38 -6 -208 1 -270 13 -114 31 -202 76 -382 44 -178 44 -179 24 -172 -28 11
-85 -7 -110 -34 -13 -14 -41 -65 -61 -112 -110 -255 -185 -556 -220 -880 -2
-19 -6 -57 -10 -85 -3 -27 -7 -148 -9 -267 -4 -332 20 -413 138 -482 45 -27
163 -62 237 -71 84 -10 235 -6 319 9 157 28 221 78 221 173 l0 38 79 3 78 3 6
-43 c13 -96 33 -143 83 -191 46 -44 141 -93 210 -107 27 -5 63 -12 79 -16 51
-10 326 -12 405 -3 41 4 93 13 115 20 42 13 120 84 124 113 5 43 4 94 -2 117
l-7 26 98 -3 c216 -5 352 58 352 164 0 18 -21 85 -46 150 -94 237 -192 550
-218 697 -3 14 -7 33 -10 43 -3 9 -7 28 -10 42 -16 86 -26 139 -31 170 -3 19
-10 60 -15 90 -13 74 -17 106 -35 275 -2 22 -7 83 -10 136 l-6 97 42 35 43 35
62 -24 c35 -13 73 -26 86 -28 13 -3 54 -14 93 -25 38 -12 77 -21 86 -21 50 0
228 430 254 615 2 11 8 47 14 80 6 33 13 97 17 141 l5 81 -60 2 c-132 3 -283
38 -288 67 -1 7 39 11 125 11 81 0 143 6 172 15 l45 14 0 119 c0 113 1 120 20
121 25 1 114 12 162 20 239 38 477 184 566 346 51 95 32 159 -55 187 -21 7
-40 16 -43 21 -3 5 3 44 14 87 11 43 22 90 25 106 25 141 37 228 42 327 1 25
2 55 3 68 1 14 7 22 20 22 24 0 81 20 81 29 0 4 -20 7 -45 7 -24 0 -47 3 -50
6 -3 3 -7 23 -9 46 -3 41 -3 41 50 67 30 15 54 30 54 34 0 5 -23 4 -50 -2 -28
-5 -53 -8 -56 -5 -12 13 -11 48 2 59 8 7 20 22 26 33 11 20 11 20 -16 2 -15
-10 -30 -15 -34 -12 -3 3 -3 6 0 6 3 0 0 21 -8 47 -8 25 -14 49 -14 53 0 18
314 -11 490 -46 41 -8 84 -16 95 -18 43 -8 143 -36 197 -55 l57 -19 -5 21 c-2
12 -7 38 -10 57 -39 225 -144 499 -259 676 -68 103 -205 243 -289 294 -32 19
-72 44 -90 56 -31 20 -50 27 -196 66 -97 26 -311 32 -425 12z m-1892 -3979
c11 -5 8 -25 -20 -108 -31 -95 -83 -328 -98 -442 -3 -27 -8 -64 -11 -81 -10
-64 -24 -231 -29 -349 -4 -90 -5 -90 -20 -25 -27 115 1 510 45 625 5 14 8 25
6 25 -2 0 5 33 15 73 11 39 21 79 24 88 13 59 60 199 66 199 4 0 14 -2 22 -5z"/>
</g>
</svg>
